<?xml version="1.0" encoding="UTF-8"?>
<svg width="98px" height="129px" viewBox="0 0 98 129" version="1.1" xmlns="http://www.w3.org/2000/svg" xmlns:xlink="http://www.w3.org/1999/xlink">
    <!-- Generator: Sketch 54.1 (76490) - https://sketchapp.com -->
    <title>Group 12</title>
    <desc>Created with Sketch.</desc>
    <defs>
        <polygon id="path-1" points="0.199898398 0.179098643 60.7458753 0.179098643 60.7458753 96 0.199898398 96"></polygon>
    </defs>
    <g id="Empty-/-error-state" stroke="none" stroke-width="1" fill="none" fillRule="evenodd">
        <g id="Empty-state" transform="translate(-1157.000000, -313.000000)">
            <g id="Group-4" transform="translate(1069.000000, 313.000000)">
                <g id="Group-12" transform="translate(88.000000, 0.000000)">
                    <g id="Group-3" transform="translate(21.000000, 33.000000)">
                        <mask id="mask-2" fill="white">
                            <use xlink:href="#path-1"></use>
                        </mask>
                        <g id="Clip-2"></g>
                        <path d="M0.209186429,2.07173213 C0.105486429,1.02659186 0.882365,0.179098643 1.92764357,0.179098643 L59.018415,0.179098643 C60.0711007,0.179098643 60.8405721,1.02224796 60.7364364,2.07173213 L51.5964579,94.1074968 C51.4923221,95.1526371 50.5529221,96.0001303 49.5006721,96.0001303 L11.4453864,96.0001303 C10.3913936,96.0001303 9.45373643,95.156981 9.34960071,94.1074968 L0.209186429,2.07173213 Z" id="Fill-1" fill="#E6ECEF" mask="url(#mask-2)"></path>
                    </g>
                    <path d="M28.0108747,55.8896888 C27.8996406,54.8460186 28.6539467,54 29.7141466,54 L72.2859522,54 C73.3378965,54 74.1004583,54.8473276 73.9892242,55.8896888 L67.1448517,120.110311 C67.0340522,121.153981 66.0911695,122 65.0444393,122 L36.9560941,122 C35.9071914,122 34.9664812,121.152672 34.8552471,120.110311 L28.0108747,55.8896888 Z" id="Fill-4" fill="#E6ECEF" style="mix-blend-mode: multiply;"></path>
                    <path d="M75.815124,18.0169415 L53.5827603,113.329375 C53.3425289,114.3583 52.3339008,114.986677 51.3278512,114.743658 L47.750595,113.879206 C46.7428264,113.635753 46.1209752,112.613338 46.3586281,111.595262 L68.9906612,14.5699792 C69.2424959,13.4902811 69.9481488,12.5780925 70.9198182,12.0751302 L93.4628926,0.414130189 C94.375686,-0.0580207547 95.5067934,0.314318868 95.9756529,1.25297925 L97.6409421,4.58841321 C98.1106612,5.52837547 97.7432231,6.67403585 96.8222645,7.15052642 L75.815124,18.0169415 Z" id="Fill-6" fill="#C7E0F4" style="mix-blend-mode: multiply;"></path>
                    <path d="M-0.000174468085,30.6952463 C-0.000174468085,19.5031095 9.16943191,10.4295937 20.4810702,10.4295937 C31.7927085,10.4295937 40.9623149,19.5031095 40.9623149,30.6952463 C40.9623149,41.8878147 31.7927085,50.9608989 20.4810702,50.9608989 C9.16943191,50.9608989 -0.000174468085,41.8878147 -0.000174468085,30.6952463" id="Fill-9" fill="#2B88D8" style="mix-blend-mode: multiply;"></path>
                </g>
            </g>
        </g>
    </g>
</svg>