<?xml version="1.0" encoding="UTF-8"?>
<svg width="23px" height="23px" viewBox="0 0 23 23" version="1.1" xmlns="http://www.w3.org/2000/svg" xmlns:xlink="http://www.w3.org/1999/xlink">
    <title>Component/icon/color/ic_Checkbox Fill</title>
    <g id="Page-1" stroke="none" stroke-width="1" fill="none" fillRule="evenodd">
        <g id="Group" transform="translate(-1.000000, -1.000000)">
            <path d="M8.24181547,1.2 L16.1581845,1.2 C18.0257901,1.2 19.8169034,1.94190343 21.1375,3.2625 C22.4580966,4.58309657 23.2,6.37420989 23.2,8.24181547 L23.2,16.1581845 C23.2,18.0257901 22.4580966,19.8169034 21.1375,21.1375 C19.8169034,22.4580966 18.0257901,23.2 16.1581845,23.2 L8.24181547,23.2 C6.37420989,23.2 4.58309657,22.4580966 3.2625,21.1375 C1.94190343,19.8169034 1.2,18.0257901 1.2,16.1581845 L1.2,8.24181547 C1.2,6.37420989 1.94190343,4.58309657 3.2625,3.2625 C4.58309657,1.94190343 6.37420989,1.2 8.24181547,1.2 Z" id="Shape" fill="#3DD598"></path>
            <path d="M8.27874808,10.8127016 C7.75267291,10.2806049 6.90522399,10.2862275 6.38591793,10.82526 C5.86661186,11.3642925 5.8720993,12.2326142 6.39817446,12.7647109 L9.7991443,16.2046086 C10.3586547,16.7705232 11.2714409,16.7227885 11.7718121,16.1014466 L17.2939162,9.24430841 C17.7643862,8.66009676 17.6835647,7.79571465 17.1133964,7.31365693 C16.5432281,6.83159921 15.6996242,6.91441132 15.2291542,7.49862297 L10.6383486,13.1993103 L8.27874808,10.8127016 Z" id="Checklist" fill="#FFFFFF" fillRule="nonzero"></path>
        </g>
    </g>
</svg>