<?xml version="1.0" encoding="UTF-8"?>
<svg width="16px" height="16px" viewBox="0 0 16 16" version="1.1" xmlns="http://www.w3.org/2000/svg" xmlns:xlink="http://www.w3.org/1999/xlink">
    <title>Component/icon/color/ic_Checkbox</title>
    <g id="Page-1" stroke="none" stroke-width="1" fill="none" fill-rule="evenodd">
        <g id="Group" transform="translate(-2.000000, -2.000000)">
            <path d="M5,2 L15,2 C16.6568542,2 18,3.34314575 18,5 L18,15 C18,16.6568542 16.6568542,18 15,18 L5,18 C3.34314575,18 2,16.6568542 2,15 L2,5 C2,3.34314575 3.34314575,2 5,2 Z" id="Shape" fill="#3DD598"></path>
            <path d="M7.36011558,9.28006903 C6.96707079,8.89208161 6.33391908,8.89618143 5.94593167,9.28922622 C5.55794425,9.68227101 5.56204406,10.3154227 5.95508885,10.7034101 L8.49604417,13.2116706 C8.91406936,13.6243169 9.59603627,13.5895103 9.96987694,13.1364482 L14.0955883,8.13644825 C14.447089,7.7104603 14.3867051,7.08018125 13.9607171,6.72868059 C13.5347292,6.37717993 12.9044501,6.43756381 12.5529495,6.86355175 L9.12303607,11.0203057 L7.36011558,9.28006903 Z" id="Checklist" fill="#FFFFFF" fill-rule="nonzero"></path>
        </g>
    </g>
</svg>