<?xml version="1.0" encoding="UTF-8"?>
<svg width="22px" height="22px" viewBox="0 0 22 22" version="1.1" xmlns="http://www.w3.org/2000/svg" xmlns:xlink="http://www.w3.org/1999/xlink">
    <title>Component/icon/color/ic_Decline Fill</title>
    <g id="Page-1" stroke="none" stroke-width="1" fill="none" fill-rule="evenodd">
        <g id="Group" transform="translate(-1.000000, -1.000000)">
            <path d="M8,1 L16,1 C19.8659932,1 23,4.13400675 23,8 L23,16 C23,19.8659932 19.8659932,23 16,23 L8,23 C4.13400675,23 1,19.8659932 1,16 L1,8 C1,4.13400675 4.13400675,1 8,1 Z" id="Combined-Shape" fill="#FC5A5A"></path>
            <path d="M10.4142136,11.8284271 L8.29289322,9.70710678 C7.90236893,9.31658249 7.90236893,8.68341751 8.29289322,8.29289322 C8.68341751,7.90236893 9.31658249,7.90236893 9.70710678,8.29289322 L11.8284271,10.4142136 L13.9497475,8.29289322 C14.3402718,7.90236893 14.9734367,7.90236893 15.363961,8.29289322 C15.7544853,8.68341751 15.7544853,9.31658249 15.363961,9.70710678 L13.2426407,11.8284271 L15.363961,13.9497475 C15.7544853,14.3402718 15.7544853,14.9734367 15.363961,15.363961 C14.9734367,15.7544853 14.3402718,15.7544853 13.9497475,15.363961 L11.8284271,13.2426407 L9.70710678,15.363961 C9.31658249,15.7544853 8.68341751,15.7544853 8.29289322,15.363961 C7.90236893,14.9734367 7.90236893,14.3402718 8.29289322,13.9497475 L10.4142136,11.8284271 L10.4142136,11.8284271 Z" id="Path" fill="#FFFFFF"></path>
        </g>
    </g>
</svg>