<?xml version="1.0" encoding="UTF-8"?>
<svg width="34px" height="34px" viewBox="0 0 34 34" version="1.1" xmlns="http://www.w3.org/2000/svg" xmlns:xlink="http://www.w3.org/1999/xlink">
    <title>Component/icon/color/ic_Notification Status_Add Friend</title>
    <g id="Page-1" stroke="none" stroke-width="1" fill="none" fill-rule="evenodd">
        <g id="Group">
            <circle id="Shape" fill="#0073FF" opacity="0.100000001" cx="17" cy="17" r="17"></circle>
            <g transform="translate(6.000000, 5.000000)" fill="#0062FF" id="Component/icon/ic_Friends">
                <path d="M11,6.41666667 C9.48121694,6.41666667 8.25,5.18544973 8.25,3.66666667 C8.25,2.1478836 9.48121694,0.916666667 11,0.916666667 C12.5187831,0.916666667 13.75,2.1478836 13.75,3.66666667 C13.75,5.18544973 12.5187831,6.41666667 11,6.41666667 Z M11,4.58333333 C11.506261,4.58333333 11.9166667,4.17292769 11.9166667,3.66666667 C11.9166667,3.16040565 11.506261,2.75 11,2.75 C10.493739,2.75 10.0833333,3.16040565 10.0833333,3.66666667 C10.0833333,4.17292769 10.493739,4.58333333 11,4.58333333 Z M10.0833333,6.41666667 L11.9166667,6.41666667 C13.4354497,6.41666667 14.6666667,7.6478836 14.6666667,9.16666667 L14.6666667,10.0833333 C14.6666667,11.6021164 13.4354497,12.8333333 11.9166667,12.8333333 L10.0833333,12.8333333 C8.56455027,12.8333333 7.33333333,11.6021164 7.33333333,10.0833333 L7.33333333,9.16666667 C7.33333333,7.6478836 8.56455027,6.41666667 10.0833333,6.41666667 Z M10.0833333,8.25 C9.57707231,8.25 9.16666667,8.66040565 9.16666667,9.16666667 L9.16666667,10.0833333 C9.16666667,10.5895944 9.57707231,11 10.0833333,11 L11.9166667,11 C12.4229277,11 12.8333333,10.5895944 12.8333333,10.0833333 L12.8333333,9.16666667 C12.8333333,8.66040565 12.4229277,8.25 11.9166667,8.25 L10.0833333,8.25 Z M17.4166667,14.6666667 C15.8978836,14.6666667 14.6666667,13.4354497 14.6666667,11.9166667 C14.6666667,10.3978836 15.8978836,9.16666667 17.4166667,9.16666667 C18.9354497,9.16666667 20.1666667,10.3978836 20.1666667,11.9166667 C20.1666667,13.4354497 18.9354497,14.6666667 17.4166667,14.6666667 Z M17.4166667,12.8333333 C17.9229277,12.8333333 18.3333333,12.4229277 18.3333333,11.9166667 C18.3333333,11.4104056 17.9229277,11 17.4166667,11 C16.9104056,11 16.5,11.4104056 16.5,11.9166667 C16.5,12.4229277 16.9104056,12.8333333 17.4166667,12.8333333 Z M16.5,14.6666667 L18.3333333,14.6666667 C19.8521164,14.6666667 21.0833333,15.8978836 21.0833333,17.4166667 L21.0833333,18.3333333 C21.0833333,19.8521164 19.8521164,21.0833333 18.3333333,21.0833333 L16.5,21.0833333 C14.9812169,21.0833333 13.75,19.8521164 13.75,18.3333333 L13.75,17.4166667 C13.75,15.8978836 14.9812169,14.6666667 16.5,14.6666667 Z M16.5,16.5 C15.993739,16.5 15.5833333,16.9104056 15.5833333,17.4166667 L15.5833333,18.3333333 C15.5833333,18.8395944 15.993739,19.25 16.5,19.25 L18.3333333,19.25 C18.8395944,19.25 19.25,18.8395944 19.25,18.3333333 L19.25,17.4166667 C19.25,16.9104056 18.8395944,16.5 18.3333333,16.5 L16.5,16.5 Z M4.58333333,14.6666667 C3.06455027,14.6666667 1.83333333,13.4354497 1.83333333,11.9166667 C1.83333333,10.3978836 3.06455027,9.16666667 4.58333333,9.16666667 C6.1021164,9.16666667 7.33333333,10.3978836 7.33333333,11.9166667 C7.33333333,13.4354497 6.1021164,14.6666667 4.58333333,14.6666667 Z M4.58333333,12.8333333 C5.08959435,12.8333333 5.5,12.4229277 5.5,11.9166667 C5.5,11.4104056 5.08959435,11 4.58333333,11 C4.07707231,11 3.66666667,11.4104056 3.66666667,11.9166667 C3.66666667,12.4229277 4.07707231,12.8333333 4.58333333,12.8333333 Z M3.66666667,14.6666667 L5.5,14.6666667 C7.01878306,14.6666667 8.25,15.8978836 8.25,17.4166667 L8.25,18.3333333 C8.25,19.8521164 7.01878306,21.0833333 5.5,21.0833333 L3.66666667,21.0833333 C2.1478836,21.0833333 0.916666667,19.8521164 0.916666667,18.3333333 L0.916666667,17.4166667 C0.916666667,15.8978836 2.1478836,14.6666667 3.66666667,14.6666667 Z M3.66666667,16.5 C3.16040565,16.5 2.75,16.9104056 2.75,17.4166667 L2.75,18.3333333 C2.75,18.8395944 3.16040565,19.25 3.66666667,19.25 L5.5,19.25 C6.00626102,19.25 6.41666667,18.8395944 6.41666667,18.3333333 L6.41666667,17.4166667 C6.41666667,16.9104056 6.00626102,16.5 5.5,16.5 L3.66666667,16.5 Z" id="Shape"></path>
            </g>
        </g>
    </g>
</svg>