<?xml version="1.0" encoding="UTF-8"?>
<svg width="34px" height="34px" viewBox="0 0 34 34" version="1.1" xmlns="http://www.w3.org/2000/svg" xmlns:xlink="http://www.w3.org/1999/xlink">
    <title>Component/icon/color/ic_Notification Status_Comment</title>
    <g id="Page-1" stroke="none" stroke-width="1" fill="none" fill-rule="evenodd">
        <g id="Shape" fill="#82C43C">
            <circle opacity="0.100000001" cx="17" cy="17" r="17"></circle>
            <path d="M23.0472907,22.9599904 C23.0456842,23.9541017 22.2384955,24.7586857 21.2443843,24.7570817 C20.8443149,24.7564328 20.4558622,24.6225224 20.140381,24.376499 L17.1591185,22.0516046 L11.5833333,22.0516046 C9.92647908,22.0516046 8.58333333,20.7084588 8.58333333,19.0516046 L8.58333333,11.4 C8.58333333,9.74314575 9.92647908,8.4 11.5833333,8.4 L23.4166667,8.4 C25.0735209,8.4 26.4166667,9.74314575 26.4166667,11.4 L26.4166667,19.0516046 C26.4166667,20.7084588 25.0735209,22.0516046 23.4166667,22.0516046 L23.0487587,22.0516046 L23.0472907,22.9599904 Z M21.0503746,21.0499886 C21.0512661,20.4983356 21.4987196,20.0516046 22.0503733,20.0516046 L23.4166667,20.0516046 C23.9689514,20.0516046 24.4166667,19.6038893 24.4166667,19.0516046 L24.4166667,11.4 C24.4166667,10.8477153 23.9689514,10.4 23.4166667,10.4 L11.5833333,10.4 C11.0310486,10.4 10.5833333,10.8477153 10.5833333,11.4 L10.5833333,19.0516046 C10.5833333,19.6038893 11.0310486,20.0516046 11.5833333,20.0516046 L17.517343,20.0516046 C17.802867,20.0516046 18.0533952,20.1686653 18.2323715,20.3523135 L21.0479539,22.5480046 L21.0503746,21.0499886 Z" transform="translate(17.500000, 16.578541) scale(-1, 1) translate(-17.500000, -16.578541) "></path>
        </g>
    </g>
</svg>