<?xml version="1.0" encoding="UTF-8"?>
<svg width="34px" height="34px" viewBox="0 0 34 34" version="1.1" xmlns="http://www.w3.org/2000/svg" xmlns:xlink="http://www.w3.org/1999/xlink">
    <title>Component/icon/color/ic_Notification Status_Like</title>
    <g id="Page-1" stroke="none" stroke-width="1" fill="none" fill-rule="evenodd">
        <g id="Shape" fill="#FFC542">
            <circle opacity="0.100000001" cx="17" cy="17" r="17"></circle>
            <path d="M17.0651119,10.1348812 C19.1852387,7.9550396 22.6344548,7.9550396 24.7545815,10.1348812 C26.8595839,12.2991725 26.8595839,15.796982 24.7545815,17.9612732 L18.3142387,24.5830129 C17.6082883,25.3088469 16.4475977,25.3249657 15.7217638,24.6190153 C15.7035959,24.6011808 15.7035959,24.6011808 15.6857613,24.5830129 L9.24541845,17.9612732 C7.14041607,15.796982 7.14041607,12.2991725 9.24541845,10.1348812 C11.3655452,7.9550396 14.8147613,7.9550396 16.9348881,10.1348812 L17,10.201827 L17.0651119,10.1348812 Z M17,23.065732 L23.3208667,16.5668337 C24.6708222,15.1788557 24.6708222,12.9172988 23.3208667,11.5293207 C21.9860355,10.1568931 19.833658,10.1568931 18.4988268,11.5293207 L17.7168574,12.3333148 C17.3242097,12.7370218 16.6757903,12.7370218 16.2831426,12.3333148 L15.5011732,11.5293207 C14.166342,10.1568931 12.0139645,10.1568931 10.6791333,11.5293207 C9.32917777,12.9172988 9.32917777,15.1788557 10.6791333,16.5668337 L17,23.065732 Z"></path>
        </g>
    </g>
</svg>