<svg xmlns="http://www.w3.org/2000/svg" width="22" height="22" viewBox="0 0 22 22">
    <g fill="none" fill-rule="evenodd" transform="translate(0 -1)">
        <ellipse cx="11" cy="12" rx="11" ry="12"/>
        <path fill="#92929D" d="M11 1c5.569 0 10.083 4.925 10.083 11 0 1.702-.355 3.35-1.028 4.844l.694 3.405c.22 1.078-.404 2.147-1.392 2.386-.262.064-.533.064-.795 0l-3.122-.756C14.071 22.612 12.56 23 11 23 5.431 23 .917 18.075.917 12S5.43 1 11 1zm0 2c-4.556 0-8.25 4.03-8.25 9s3.694 9 8.25 9c1.375 0 2.7-.367 3.884-1.058.193-.112.417-.146.631-.094l3.444.835-.765-3.757c-.048-.234-.017-.478.086-.689.634-1.292.97-2.737.97-4.237 0-4.97-3.694-9-8.25-9zm-2.75 7c1.013 0 1.833.895 1.833 2s-.82 2-1.833 2-1.833-.895-1.833-2 .82-2 1.833-2zm5.5 0c1.013 0 1.833.895 1.833 2s-.82 2-1.833 2-1.833-.895-1.833-2 .82-2 1.833-2z"/>
    </g>
</svg>
