<svg xmlns="http://www.w3.org/2000/svg" width="20" height="22" viewBox="0 0 20 22">
    <path fill="#92929D" fill-rule="evenodd" d="M10 0c1.287 0 2.398.976 2.664 2.34l.051.265c.969.366 1.867.925 2.647 1.652l.236-.084c1.224-.433 2.56.12 3.204 1.327.643 1.206.418 2.736-.54 3.666l-.185.18c.191 1.094.19 2.216-.002 3.307l.187.18c.958.931 1.183 2.46.54 3.667-.644 1.206-1.98 1.76-3.204 1.327l-.237-.084c-.386.36-.804.68-1.252.96-.447.28-.914.511-1.394.694l-.051.264C12.398 21.024 11.287 22 10 22c-1.287 0-2.398-.976-2.664-2.34l-.051-.265c-.969-.366-1.867-.925-2.647-1.652l-.236.084c-1.224.433-2.56-.12-3.204-1.327-.643-1.206-.418-2.736.54-3.666l.185-.18c-.191-1.094-.19-2.216.002-3.307l-.187-.18C.78 8.235.555 6.706 1.198 5.5c.644-1.206 1.98-1.76 3.204-1.327l.237.084c.386-.36.804-.68 1.252-.96.447-.28.914-.511 1.394-.694l.051-.264C7.602.976 8.713 0 10 0zm0 2c-.413 0-.77.313-.855.751l-.163.837c-.071.367-.326.66-.66.759-.523.155-1.028.383-1.507.682-.48.3-.914.659-1.3 1.071-.246.264-.607.356-.937.24l-.75-.266c-.394-.14-.823.039-1.03.426-.206.387-.134.879.174 1.177l.59.573c.258.25.365.636.277.998-.279 1.148-.282 2.355-.002 3.504.088.363-.019.749-.277 1l-.588.57c-.308.3-.38.79-.174 1.178.207.387.636.565 1.03.426l.75-.266c.33-.116.692-.024.938.24.78.838 1.747 1.438 2.805 1.75.334.1.59.393.66.76l.164.839c.085.438.442.751.855.751s.77-.313.855-.751l.163-.837c.071-.367.326-.66.66-.759.523-.155 1.028-.383 1.507-.682.48-.3.914-.659 1.3-1.071.246-.264.607-.356.937-.24l.75.266c.394.14.823-.039 1.03-.426.206-.387.134-.879-.174-1.177l-.59-.573c-.258-.25-.365-.636-.277-.998.279-1.148.282-2.355.002-3.504-.088-.363.019-.749.277-1l.588-.57c.308-.3.38-.79.174-1.178-.207-.387-.636-.565-1.03-.426l-.75.266c-.33.116-.692.024-.938-.24-.78-.838-1.747-1.438-2.805-1.75-.334-.1-.59-.393-.66-.76l-.164-.839C10.77 2.313 10.413 2 10 2zm0 5.368c1.853 0 3.355 1.626 3.355 3.632 0 2.006-1.502 3.632-3.355 3.632S6.645 13.006 6.645 11c0-2.006 1.502-3.632 3.355-3.632zm0 2c-.833 0-1.508.73-1.508 1.632 0 .901.675 1.632 1.508 1.632s1.508-.73 1.508-1.632c0-.901-.675-1.632-1.508-1.632z"/>
</svg>
