<svg xmlns="http://www.w3.org/2000/svg" width="22" height="22" viewBox="0 0 22 22">
    <path fill="#0062FF" fill-rule="evenodd" d="M15 0c3.866 0 7 3.134 7 7v8c0 3.866-3.134 7-7 7H7c-3.866 0-7-3.134-7-7V7c0-3.866 3.134-7 7-7h8zm0 2H7C4.239 2 2 4.239 2 7v8c0 2.761 2.239 5 5 5h8c2.761 0 5-2.239 5-5V7c0-2.761-2.239-5-5-5zm-.782 5.364c.351-.426.982-.487 1.408-.135.426.351.486.981.134 1.407l-4.95 6c-.374.454-1.056.488-1.474.076l-3.05-3.01c-.392-.388-.397-1.021-.009-1.414s1.022-.398 1.415-.01l2.27 2.242z"/>
</svg>
