<svg xmlns="http://www.w3.org/2000/svg" width="22" height="22" viewBox="0 0 22 22">
    <path fill="#5C63AB" fill-rule="evenodd" d="M11 6C9.343 6 8 4.657 8 3s1.343-3 3-3 3 1.343 3 3-1.343 3-3 3zm0-2c.552 0 1-.448 1-1s-.448-1-1-1-1 .448-1 1 .448 1 1 1zm-1 2h2c1.657 0 3 1.343 3 3v1c0 1.657-1.343 3-3 3h-2c-1.657 0-3-1.343-3-3V9c0-1.657 1.343-3 3-3zm0 2c-.552 0-1 .448-1 1v1c0 .552.448 1 1 1h2c.552 0 1-.448 1-1V9c0-.552-.448-1-1-1h-2zm8 7c-1.657 0-3-1.343-3-3s1.343-3 3-3 3 1.343 3 3-1.343 3-3 3zm0-2c.552 0 1-.448 1-1s-.448-1-1-1-1 .448-1 1 .448 1 1 1zm-1 2h2c1.657 0 3 1.343 3 3v1c0 1.657-1.343 3-3 3h-2c-1.657 0-3-1.343-3-3v-1c0-1.657 1.343-3 3-3zm0 2c-.552 0-1 .448-1 1v1c0 .552.448 1 1 1h2c.552 0 1-.448 1-1v-1c0-.552-.448-1-1-1h-2zM4 15c-1.657 0-3-1.343-3-3s1.343-3 3-3 3 1.343 3 3-1.343 3-3 3zm0-2c.552 0 1-.448 1-1s-.448-1-1-1-1 .448-1 1 .448 1 1 1zm-1 2h2c1.657 0 3 1.343 3 3v1c0 1.657-1.343 3-3 3H3c-1.657 0-3-1.343-3-3v-1c0-1.657 1.343-3 3-3zm0 2c-.552 0-1 .448-1 1v1c0 .552.448 1 1 1h2c.552 0 1-.448 1-1v-1c0-.552-.448-1-1-1H3z"/>
</svg>
