<?xml version="1.0" encoding="UTF-8"?>
<svg width="14px" height="14px" viewBox="0 0 14 14" version="1.1" xmlns="http://www.w3.org/2000/svg" xmlns:xlink="http://www.w3.org/1999/xlink">
    <title>Component/icon/ic_Closs</title>
    <g id="Page-1" stroke="none" stroke-width="1" fill="none" fill-rule="evenodd">
        <g id="Shape" transform="translate(-5.000000, -5.000000)" fill="#92929D">
            <path d="M5.29628927,5.29257348 C5.68699015,4.90222586 6.32015507,4.90251222 6.71050269,5.2932131 L6.71050269,5.2932131 L11.997,10.585 L17.2739366,5.31734338 C17.6346884,4.95712748 18.2019399,4.9298196 18.5940043,5.23513601 L18.6881498,5.31839462 C19.0783837,5.70920909 19.077913,6.3423739 18.6870985,6.73260779 L18.6870985,6.73260779 L13.411,12 L18.6886033,17.2821535 C19.0489242,17.6428005 19.0763971,18.210044 18.7711949,18.6021972 L18.6879637,18.6963669 C18.2972628,19.0867146 17.6640979,19.0864282 17.2737502,18.6957273 L17.2737502,18.6957273 L11.996,13.413 L6.70658097,18.6953275 C6.34582915,19.0555434 5.77857763,19.0828513 5.38651327,18.7775349 L5.2923678,18.6942763 C4.9021339,18.3034618 4.90260456,17.670297 5.29341903,17.2800631 L5.29341903,17.2800631 L10.582,11.998 L5.29564965,6.7067869 C4.93532877,6.34613993 4.90785578,5.77889639 5.21305807,5.38674318 Z"></path>
        </g>
    </g>
</svg>