<?xml version="1.0" encoding="UTF-8"?>
<svg width="20px" height="20px" viewBox="0 0 20 20" version="1.1" xmlns="http://www.w3.org/2000/svg" xmlns:xlink="http://www.w3.org/1999/xlink">
    <title>Component/icon/ic_Card View</title>
    <g id="Page-1" stroke="none" stroke-width="1" fill="none" fill-rule="evenodd">
        <g id="iconspace_Application_25px" transform="translate(-2.000000, -2.000000)">
            <polygon id="Path" points="0 0 24 0 24 24 0 24"></polygon>
            <path d="M4.20779221,2 L9.4025974,2 C10.6219274,2 11.6103896,2.98846224 11.6103896,4.20779221 L11.6103896,9.4025974 C11.6103896,10.6219274 10.6219274,11.6103896 9.4025974,11.6103896 L4.20779221,11.6103896 C2.98846224,11.6103896 2,10.6219274 2,9.4025974 L2,4.20779221 C2,2.98846224 2.98846224,2 4.20779221,2 Z M4.20779221,3.81818182 C3.99261633,3.81818182 3.81818182,3.99261633 3.81818182,4.20779221 L3.81818182,9.4025974 C3.81818182,9.61777328 3.99261633,9.79220779 4.20779221,9.79220779 L9.4025974,9.79220779 C9.61777328,9.79220779 9.79220779,9.61777328 9.79220779,9.4025974 L9.79220779,4.20779221 C9.79220779,3.99261633 9.61777328,3.81818182 9.4025974,3.81818182 L4.20779221,3.81818182 Z M14.5974026,12.3896104 L19.7922078,12.3896104 C21.0115378,12.3896104 22,13.3780726 22,14.5974026 L22,19.7922078 C22,21.0115378 21.0115378,22 19.7922078,22 L14.5974026,22 C13.3780726,22 12.3896104,21.0115378 12.3896104,19.7922078 L12.3896104,14.5974026 C12.3896104,13.3780726 13.3780726,12.3896104 14.5974026,12.3896104 Z M14.5974026,14.2077922 C14.3822267,14.2077922 14.2077922,14.3822267 14.2077922,14.5974026 L14.2077922,19.7922078 C14.2077922,20.0073837 14.3822267,20.1818182 14.5974026,20.1818182 L19.7922078,20.1818182 C20.0073837,20.1818182 20.1818182,20.0073837 20.1818182,19.7922078 L20.1818182,14.5974026 C20.1818182,14.3822267 20.0073837,14.2077922 19.7922078,14.2077922 L14.5974026,14.2077922 Z M14.5974026,2 L19.7922078,2 C21.0115378,2 22,2.98846224 22,4.20779221 L22,9.4025974 C22,10.6219274 21.0115378,11.6103896 19.7922078,11.6103896 L14.5974026,11.6103896 C13.3780726,11.6103896 12.3896104,10.6219274 12.3896104,9.4025974 L12.3896104,4.20779221 C12.3896104,2.98846224 13.3780726,2 14.5974026,2 Z M14.5974026,3.81818182 C14.3822267,3.81818182 14.2077922,3.99261633 14.2077922,4.20779221 L14.2077922,9.4025974 C14.2077922,9.61777328 14.3822267,9.79220779 14.5974026,9.79220779 L19.7922078,9.79220779 C20.0073837,9.79220779 20.1818182,9.61777328 20.1818182,9.4025974 L20.1818182,4.20779221 C20.1818182,3.99261633 20.0073837,3.81818182 19.7922078,3.81818182 L14.5974026,3.81818182 Z M4.20779221,12.3896104 L9.4025974,12.3896104 C10.6219274,12.3896104 11.6103896,13.3780726 11.6103896,14.5974026 L11.6103896,19.7922078 C11.6103896,21.0115378 10.6219274,22 9.4025974,22 L4.20779221,22 C2.98846224,22 2,21.0115378 2,19.7922078 L2,14.5974026 C2,13.3780726 2.98846224,12.3896104 4.20779221,12.3896104 Z M4.20779221,14.2077922 C3.99261633,14.2077922 3.81818182,14.3822267 3.81818182,14.5974026 L3.81818182,19.7922078 C3.81818182,20.0073837 3.99261633,20.1818182 4.20779221,20.1818182 L9.4025974,20.1818182 C9.61777328,20.1818182 9.79220779,20.0073837 9.79220779,19.7922078 L9.79220779,14.5974026 C9.79220779,14.3822267 9.61777328,14.2077922 9.4025974,14.2077922 L4.20779221,14.2077922 Z" id="Shape" fill="#92929D"></path>
        </g>
    </g>
</svg>