<?xml version="1.0" encoding="UTF-8"?>
<svg width="20px" height="19px" viewBox="0 0 20 19" version="1.1" xmlns="http://www.w3.org/2000/svg" xmlns:xlink="http://www.w3.org/1999/xlink">
    <title>Component/icon/ic_comment</title>
    <g id="Page-1" stroke="none" stroke-width="1" fill="none" fill-rule="evenodd">
        <g id="Comments" transform="translate(-2.000000, -3.000000)">
            <polygon id="Path" points="0 0 24 0 24 25 0 25"></polygon>
            <g id="iconspace_Chat-3_25px" transform="translate(2.000000, 3.000000)" fill="#92929D">
                <path d="M10.5139395,15.2840977 L6.06545155,18.6848361 C5.05870104,19.4544672 3.61004168,18.735539 3.60795568,17.4701239 L3.60413773,15.1540669 C1.53288019,14.6559967 0,12.7858138 0,10.5640427 L0,4.72005508 C0,2.11409332 2.10603901,0 4.70588235,0 L15.2941176,0 C17.893961,0 20,2.11409332 20,4.72005508 L20,10.5640427 C20,13.1700044 17.893961,15.2840977 15.2941176,15.2840977 L10.5139395,15.2840977 Z M5.60638935,16.5183044 L9.56815664,13.4896497 C9.74255213,13.3563295 9.955971,13.2840977 10.1754888,13.2840977 L15.2941176,13.2840977 C16.7876789,13.2840977 18,12.0671403 18,10.5640427 L18,4.72005508 C18,3.21695746 16.7876789,2 15.2941176,2 L4.70588235,2 C3.21232108,2 2,3.21695746 2,4.72005508 L2,10.5640427 C2,12.0388485 3.1690612,13.2429664 4.6301335,13.28306 C5.17089106,13.297899 5.60180952,13.7400748 5.60270128,14.2810352 L5.60638935,16.5183044 Z" id="Path"></path>
            </g>
        </g>
    </g>
</svg>