<?xml version="1.0" encoding="UTF-8"?>
<svg width="19px" height="20px" viewBox="0 0 19 20" version="1.1" xmlns="http://www.w3.org/2000/svg" xmlns:xlink="http://www.w3.org/1999/xlink">
    <title>Component/icon/ic_Doc</title>
    <g id="Page-1" stroke="none" stroke-width="1" fill="none" fill-rule="evenodd">
        <g id="Shape" transform="translate(-3.000000, -2.000000)" fill="#92929D">
            <path d="M18.0649584,7.4 L16.7,5.76204994 L16.7,7.4 L18.0649584,7.4 L18.0649584,7.4 Z M21.2,8.72584494 L21.2,18.3 C21.2,20.3434536 19.5434536,22 17.5,22 L6.7,22 C4.65654643,22 3,20.3434536 3,18.3 L3,5.7 C3,3.65654643 4.65654643,2 6.7,2 L15.2784625,2 C15.8423442,2 16.3770947,2.25046372 16.738083,2.68364964 L20.7596204,7.50949458 C21.0441692,7.85095308 21.2,8.28136558 21.2,8.72584494 Z M19.2,9.4 L16.6,9.4 C15.550659,9.4 14.7,8.54934102 14.7,7.5 L14.7,4 L6.7,4 C5.76111593,4 5,4.76111593 5,5.7 L5,18.3 C5,19.2388841 5.76111593,20 6.7,20 L17.5,20 C18.4388841,20 19.2,19.2388841 19.2,18.3 L19.2,9.4 L19.2,9.4 Z M7.10285715,15.6 L17.0971429,15.6 C17.2644062,15.6 17.4,15.7193907 17.4,15.8666667 L17.4,17.3333333 C17.4,17.4806093 17.2644062,17.6 17.0971429,17.6 L7.10285715,17.6 C6.93559376,17.6 6.8,17.4806093 6.8,17.3333333 L6.8,15.8666667 C6.8,15.7193907 6.93559376,15.6 7.10285715,15.6 Z"></path>
        </g>
    </g>
</svg>