<?xml version="1.0" encoding="UTF-8"?>
<svg width="20px" height="18px" viewBox="0 0 20 18" version="1.1" xmlns="http://www.w3.org/2000/svg" xmlns:xlink="http://www.w3.org/1999/xlink">
    <title>Component/icon/ic_Filter</title>
    <g id="Page-1" stroke="none" stroke-width="1" fill="none" fill-rule="evenodd">
        <g id="Shape" transform="translate(-2.000000, -3.000000)" fill="#92929D">
            <path d="M15,12.9125189 L15,18 C15,18.3787721 14.7859976,18.7250352 14.4472136,18.8944272 L10.4472136,20.8944272 C9.7823125,21.2268777 9,20.743382 9,20 L9,12.9125189 L2.2260427,4.63323779 C1.69182649,3.98030687 2.15637345,3 3,3 L21,3 C21.8436265,3 22.3081735,3.98030687 21.7739573,4.63323779 L15,12.9125189 Z M13,17.381966 L13,12.5555556 C13,12.3247132 13.0798646,12.1009799 13.2260427,11.9223178 L18.8897572,5 L5.11024276,5 L10.7739573,11.9223178 C10.9201354,12.1009799 11,12.3247132 11,12.5555556 L11,18.381966 L13,17.381966 Z"></path>
        </g>
    </g>
</svg>