<?xml version="1.0" encoding="UTF-8"?>
<svg width="22px" height="22px" viewBox="0 0 22 22" version="1.1" xmlns="http://www.w3.org/2000/svg" xmlns:xlink="http://www.w3.org/1999/xlink">
    <title>Component/icon/ic_Projects</title>
    <g id="Page-1" stroke="none" stroke-width="1" fill="none" fill-rule="evenodd">
        <g id="Combined-Shape" transform="translate(-1.000000, -1.000000)" fill="#92929D">
            <path d="M16,1 C19.8659932,1 23,4.13400675 23,8 L23,16 C23,19.8659932 19.8659932,23 16,23 L8,23 C4.13400675,23 1,19.8659932 1,16 L1,8 C1,4.13400675 4.13400675,1 8,1 L16,1 Z M16,3 L8,3 C5.23857625,3 3,5.23857625 3,8 L3,16 C3,18.7614237 5.23857625,21 8,21 L16,21 C18.7614237,21 21,18.7614237 21,16 L21,8 C21,5.23857625 18.7614237,3 16,3 Z M15.2178033,8.36355175 C15.5693039,7.93756381 16.199583,7.87717993 16.6255709,8.22868059 C17.0515589,8.58018125 17.1119427,9.2104603 16.7604421,9.63644825 L16.7604421,9.63644825 L11.8095885,15.6364482 C11.4357478,16.0895103 10.7537809,16.1243169 10.3357557,15.7116706 L10.3357557,15.7116706 L7.28660929,12.701758 C6.8935645,12.3137706 6.88946469,11.6806189 7.27745211,11.2875741 C7.66543953,10.8945293 8.29859123,10.8904295 8.69163602,11.2784169 L8.69163602,11.2784169 L10.9627476,13.5203057 Z"></path>
        </g>
    </g>
</svg>