<?xml version="1.0" encoding="UTF-8"?>
<svg width="20px" height="20px" viewBox="0 0 20 20" version="1.1" xmlns="http://www.w3.org/2000/svg" xmlns:xlink="http://www.w3.org/1999/xlink">
    <title>Component/icon/ic_Settings Outline</title>
    <g id="Page-1" stroke="none" stroke-width="1" fill="none" fill-rule="evenodd">
        <g id="iconspace_Setting_25px" transform="translate(-2.000000, -2.000000)">
            <polygon id="Path" points="0 0 24 0 24 24 0 24"></polygon>
            <polygon id="Path" points="0 0 24 0 24 24 0 24"></polygon>
            <path d="M13.5,2 C13.7364436,2 13.940565,2.16562292 13.9892749,2.39699476 L14.404158,4.36768958 C14.8505059,4.50816 15.2827299,4.68754566 15.6964129,4.90343802 L17.3837204,3.80302011 C17.581768,3.67385858 17.8432168,3.70108114 18.0104076,3.86827202 L20.131728,5.98959236 C20.2989189,6.15678324 20.3261414,6.41823197 20.1969799,6.61627964 L19.096562,8.3035871 C19.3124543,8.71727006 19.49184,9.1494941 19.6323104,9.59584199 L21.6030052,10.0107251 C21.8343771,10.059435 22,10.2635564 22,10.5 L22,13.5 C22,13.7364436 21.8343771,13.940565 21.6030052,13.9892749 L19.6323104,14.404158 C19.49184,14.8505059 19.3124543,15.2827299 19.096562,15.6964129 L20.1969799,17.3837204 C20.3261414,17.581768 20.2989189,17.8432168 20.131728,18.0104076 L18.0104076,20.131728 C17.8432168,20.2989189 17.581768,20.3261414 17.3837204,20.1969799 L15.6964129,19.096562 C15.2827299,19.3124543 14.8505059,19.49184 14.404158,19.6323104 L13.9892749,21.6030052 C13.940565,21.8343771 13.7364436,22 13.5,22 L10.5,22 C10.2635564,22 10.059435,21.8343771 10.0107251,21.6030052 L9.59584199,19.6323104 C9.1494941,19.49184 8.71727006,19.3124543 8.3035871,19.096562 L6.61627964,20.1969799 C6.41823197,20.3261414 6.15678324,20.2989189 5.98959236,20.131728 L3.86827202,18.0104076 C3.70108114,17.8432168 3.67385858,17.581768 3.80302011,17.3837204 L4.90343802,15.6964129 C4.68754566,15.2827299 4.50816,14.8505059 4.36768958,14.404158 L2.39699476,13.9892749 C2.16562292,13.940565 2,13.7364436 2,13.5 L2,10.5 C2,10.2635564 2.16562292,10.059435 2.39699476,10.0107251 L4.36768958,9.59584199 C4.50816,9.1494941 4.68754566,8.71727006 4.90343802,8.3035871 L3.80302011,6.61627964 C3.67385858,6.41823197 3.70108114,6.15678324 3.86827202,5.98959236 L5.98959236,3.86827202 C6.15678324,3.70108114 6.41823197,3.67385858 6.61627964,3.80302011 L8.3035871,4.90343802 C8.71727006,4.68754566 9.1494941,4.50816 9.59584199,4.36768958 L10.0107251,2.39699476 C10.059435,2.16562292 10.2635564,2 10.5,2 L13.5,2 Z M13.094303,3 L10.905697,3 L10.5128203,4.86616464 C10.4741705,5.04975111 10.3360013,5.1962519 10.1549895,5.24557255 C9.5854645,5.40075217 9.03973237,5.627487 8.52920943,5.91957413 C8.36632131,6.01276783 8.16496455,6.0069042 8.00777557,5.90438965 L6.40982801,4.86224993 L4.86224993,6.40982801 L5.90438965,8.00777557 C6.0069042,8.16496455 6.01276783,8.36632131 5.91957413,8.52920943 C5.627487,9.03973237 5.40075217,9.5854645 5.24557255,10.1549895 C5.1962519,10.3360013 5.04975111,10.4741705 4.86616464,10.5128203 L3,10.905697 L3,13.094303 L4.86616464,13.4871797 C5.04975111,13.5258295 5.1962519,13.6639987 5.24557255,13.8450105 C5.40075217,14.4145355 5.627487,14.9602676 5.91957413,15.4707906 C6.01276783,15.6336787 6.0069042,15.8350355 5.90438965,15.9922244 L4.86224993,17.590172 L6.40982801,19.1377501 L8.00777557,18.0956104 C8.16496455,17.9930958 8.36632131,17.9872322 8.52920943,18.0804259 C9.03973237,18.372513 9.5854645,18.5992478 10.1549895,18.7544275 C10.3360013,18.8037481 10.4741705,18.9502489 10.5128203,19.1338354 L10.905697,21 L13.094303,21 L13.4871797,19.1338354 C13.5258295,18.9502489 13.6639987,18.8037481 13.8450105,18.7544275 C14.4145355,18.5992478 14.9602676,18.372513 15.4707906,18.0804259 C15.6336787,17.9872322 15.8350355,17.9930958 15.9922244,18.0956104 L17.590172,19.1377501 L19.1377501,17.590172 L18.0956104,15.9922244 C17.9930958,15.8350355 17.9872322,15.6336787 18.0804259,15.4707906 C18.372513,14.9602676 18.5992478,14.4145355 18.7544275,13.8450105 C18.8037481,13.6639987 18.9502489,13.5258295 19.1338354,13.4871797 L21,13.094303 L21,10.905697 L19.1338354,10.5128203 C18.9502489,10.4741705 18.8037481,10.3360013 18.7544275,10.1549895 C18.5992478,9.5854645 18.372513,9.03973237 18.0804259,8.52920943 C17.9872322,8.36632131 17.9930958,8.16496455 18.0956104,8.00777557 L19.1377501,6.40982801 L17.590172,4.86224993 L15.9922244,5.90438965 C15.8350355,6.0069042 15.6336787,6.01276783 15.4707906,5.91957413 C14.9602676,5.627487 14.4145355,5.40075217 13.8450105,5.24557255 C13.6639987,5.1962519 13.5258295,5.04975111 13.4871797,4.86616464 L13.094303,3 Z M12,8 C14.209139,8 16,9.790861 16,12 C16,14.209139 14.209139,16 12,16 C9.790861,16 8,14.209139 8,12 C8,9.790861 9.790861,8 12,8 Z M12,9 C10.3431458,9 9,10.3431458 9,12 C9,13.6568542 10.3431458,15 12,15 C13.6568542,15 15,13.6568542 15,12 C15,10.3431458 13.6568542,9 12,9 Z" id="Combined-Shape" fill="#92929D"></path>
        </g>
    </g>
</svg>