<?xml version="1.0" encoding="UTF-8"?>
<svg width="6px" height="12px" viewBox="0 0 6 12" version="1.1" xmlns="http://www.w3.org/2000/svg" xmlns:xlink="http://www.w3.org/1999/xlink">
    <title>Component/icon/ic_Up&amp;Down</title>
    <g id="Page-1" stroke="none" stroke-width="1" fill="none" fill-rule="evenodd">
        <g id="Rectangle" transform="translate(-5.000000, -2.000000)" fill="#92929D">
            <path d="M6.8,9.6 L9.46666667,11.6 C9.68758057,11.7656854 9.73235209,12.0790861 9.56666667,12.3 C9.53823954,12.3379028 9.5045695,12.3715729 9.46666667,12.4 L6.8,14.4 C6.5790861,14.5656854 6.26568542,14.5209139 6.1,14.3 C6.03508894,14.2134519 6,14.1081851 6,14 L6,10 C6,9.72385763 6.22385763,9.5 6.5,9.5 C6.60818511,9.5 6.71345191,9.53508894 6.8,9.6 Z" transform="translate(8.000000, 12.000000) scale(-1.25, 1.25) rotate(-270.000000) translate(-8.000000, -12.000000) "></path>
            <path d="M6.8,1.6 L9.46666667,3.6 C9.68758057,3.76568542 9.73235209,4.0790861 9.56666667,4.3 C9.53823954,4.33790283 9.5045695,4.37157288 9.46666667,4.4 L6.8,6.4 C6.5790861,6.56568542 6.26568542,6.5209139 6.1,6.3 C6.03508894,6.21345191 6,6.10818511 6,6 L6,2 C6,1.72385763 6.22385763,1.5 6.5,1.5 C6.60818511,1.5 6.71345191,1.53508894 6.8,1.6 Z" transform="translate(8.000000, 4.000000) scale(1.25, -1.25) rotate(-270.000000) translate(-8.000000, -4.000000) "></path>
        </g>
    </g>
</svg>